<mxfile host="app.diagrams.net" modified="2024-07-05T08:18:30.988Z" agent="Mozilla/5.0 (Windows NT 10.0; Win64; x64) AppleWebKit/537.36 (KHTML, like Gecko) Chrome/124.0.0.0 YaBrowser/24.6.0.0 Safari/537.36" etag="IAypYOm8bQSk4dKuQMa2" version="24.6.4" type="device">
  <diagram name="Страница — 1" id="XvFxgukUHaZpH9yG2tZ4">
    <mxGraphModel dx="1949" dy="1878" grid="1" gridSize="10" guides="1" tooltips="1" connect="1" arrows="1" fold="1" page="1" pageScale="1" pageWidth="827" pageHeight="1169" math="0" shadow="0">
      <root>
        <mxCell id="0" />
        <mxCell id="1" parent="0" />
        <mxCell id="Ll1hvZ7rJ2rwbZJNzvcm-1" value="&lt;font style=&quot;font-size: 8px;&quot;&gt;AUTHZ&lt;/font&gt;&lt;div&gt;&lt;font style=&quot;font-size: 8px;&quot;&gt;[ UI ]&lt;/font&gt;&lt;/div&gt;" style="rounded=0;whiteSpace=wrap;html=1;" vertex="1" parent="1">
          <mxGeometry x="-16" y="-850" width="120" height="60" as="geometry" />
        </mxCell>
        <mxCell id="Ll1hvZ7rJ2rwbZJNzvcm-2" value="&lt;font style=&quot;font-size: 8px;&quot;&gt;START&lt;/font&gt;" style="rounded=1;whiteSpace=wrap;html=1;" vertex="1" parent="1">
          <mxGeometry x="-16" y="-970" width="120" height="60" as="geometry" />
        </mxCell>
        <mxCell id="Ll1hvZ7rJ2rwbZJNzvcm-3" value="" style="endArrow=classic;html=1;rounded=0;exitX=0.5;exitY=1;exitDx=0;exitDy=0;entryX=0.5;entryY=0;entryDx=0;entryDy=0;" edge="1" parent="1" source="Ll1hvZ7rJ2rwbZJNzvcm-2" target="Ll1hvZ7rJ2rwbZJNzvcm-1">
          <mxGeometry width="50" height="50" relative="1" as="geometry">
            <mxPoint x="20" y="-710" as="sourcePoint" />
            <mxPoint x="70" y="-760" as="targetPoint" />
          </mxGeometry>
        </mxCell>
        <mxCell id="Ll1hvZ7rJ2rwbZJNzvcm-4" value="&lt;font style=&quot;font-size: 8px;&quot;&gt;SUCCESS?&lt;/font&gt;" style="rhombus;whiteSpace=wrap;html=1;" vertex="1" parent="1">
          <mxGeometry x="4" y="-730" width="80" height="80" as="geometry" />
        </mxCell>
        <mxCell id="Ll1hvZ7rJ2rwbZJNzvcm-5" value="" style="endArrow=classic;html=1;rounded=0;exitX=0.5;exitY=1;exitDx=0;exitDy=0;entryX=0.5;entryY=0;entryDx=0;entryDy=0;" edge="1" parent="1">
          <mxGeometry width="50" height="50" relative="1" as="geometry">
            <mxPoint x="44" y="-790" as="sourcePoint" />
            <mxPoint x="44" y="-730" as="targetPoint" />
          </mxGeometry>
        </mxCell>
        <mxCell id="Ll1hvZ7rJ2rwbZJNzvcm-6" value="" style="endArrow=classic;html=1;rounded=0;entryX=0;entryY=0.5;entryDx=0;entryDy=0;exitX=0;exitY=0.5;exitDx=0;exitDy=0;" edge="1" parent="1" source="Ll1hvZ7rJ2rwbZJNzvcm-4" target="Ll1hvZ7rJ2rwbZJNzvcm-1">
          <mxGeometry width="50" height="50" relative="1" as="geometry">
            <mxPoint y="-690" as="sourcePoint" />
            <mxPoint x="-40" y="-740" as="targetPoint" />
            <Array as="points">
              <mxPoint x="-50" y="-690" />
              <mxPoint x="-50" y="-820" />
            </Array>
          </mxGeometry>
        </mxCell>
        <mxCell id="Ll1hvZ7rJ2rwbZJNzvcm-7" value="NO" style="edgeLabel;html=1;align=center;verticalAlign=middle;resizable=0;points=[];" vertex="1" connectable="0" parent="Ll1hvZ7rJ2rwbZJNzvcm-6">
          <mxGeometry x="-0.0355" y="-3" relative="1" as="geometry">
            <mxPoint x="-3" y="-11" as="offset" />
          </mxGeometry>
        </mxCell>
        <mxCell id="Ll1hvZ7rJ2rwbZJNzvcm-8" value="" style="endArrow=classic;html=1;rounded=0;exitX=0.5;exitY=1;exitDx=0;exitDy=0;entryX=0.5;entryY=0;entryDx=0;entryDy=0;" edge="1" parent="1" target="Ll1hvZ7rJ2rwbZJNzvcm-11">
          <mxGeometry width="50" height="50" relative="1" as="geometry">
            <mxPoint x="44" y="-650" as="sourcePoint" />
            <mxPoint x="44" y="-590" as="targetPoint" />
          </mxGeometry>
        </mxCell>
        <mxCell id="Ll1hvZ7rJ2rwbZJNzvcm-9" value="YES" style="edgeLabel;html=1;align=center;verticalAlign=middle;resizable=0;points=[];" vertex="1" connectable="0" parent="Ll1hvZ7rJ2rwbZJNzvcm-8">
          <mxGeometry x="-0.5333" y="-2" relative="1" as="geometry">
            <mxPoint x="2" y="6" as="offset" />
          </mxGeometry>
        </mxCell>
        <mxCell id="Ll1hvZ7rJ2rwbZJNzvcm-11" value="&lt;span style=&quot;font-size: 8px;&quot;&gt;GREETINGS&lt;/span&gt;&lt;div&gt;&lt;span style=&quot;font-size: 8px;&quot;&gt;[ UI ]&lt;/span&gt;&lt;/div&gt;" style="rounded=0;whiteSpace=wrap;html=1;" vertex="1" parent="1">
          <mxGeometry x="-16" y="-588" width="120" height="60" as="geometry" />
        </mxCell>
        <mxCell id="Ll1hvZ7rJ2rwbZJNzvcm-12" value="&lt;span style=&quot;font-size: 8px;&quot;&gt;OPTIONS&lt;/span&gt;" style="rhombus;whiteSpace=wrap;html=1;" vertex="1" parent="1">
          <mxGeometry x="3" y="-465" width="80" height="80" as="geometry" />
        </mxCell>
        <mxCell id="Ll1hvZ7rJ2rwbZJNzvcm-13" value="" style="endArrow=classic;html=1;rounded=0;exitX=0.5;exitY=1;exitDx=0;exitDy=0;entryX=0.5;entryY=0;entryDx=0;entryDy=0;" edge="1" parent="1">
          <mxGeometry width="50" height="50" relative="1" as="geometry">
            <mxPoint x="43" y="-528" as="sourcePoint" />
            <mxPoint x="43" y="-466" as="targetPoint" />
          </mxGeometry>
        </mxCell>
        <mxCell id="Ll1hvZ7rJ2rwbZJNzvcm-18" value="" style="endArrow=classic;html=1;rounded=0;exitX=0.5;exitY=1;exitDx=0;exitDy=0;entryX=0.5;entryY=0;entryDx=0;entryDy=0;" edge="1" parent="1">
          <mxGeometry width="50" height="50" relative="1" as="geometry">
            <mxPoint x="43" y="-385" as="sourcePoint" />
            <mxPoint x="43" y="-323" as="targetPoint" />
          </mxGeometry>
        </mxCell>
        <mxCell id="Ll1hvZ7rJ2rwbZJNzvcm-19" value="START" style="edgeLabel;html=1;align=center;verticalAlign=middle;resizable=0;points=[];" vertex="1" connectable="0" parent="Ll1hvZ7rJ2rwbZJNzvcm-18">
          <mxGeometry x="-0.5333" y="-2" relative="1" as="geometry">
            <mxPoint x="2" y="11" as="offset" />
          </mxGeometry>
        </mxCell>
        <mxCell id="Ll1hvZ7rJ2rwbZJNzvcm-20" value="&lt;span style=&quot;font-size: 8px;&quot;&gt;TEST &amp;lt;T&amp;gt; DESCRIPTION&lt;/span&gt;&lt;div&gt;&lt;span style=&quot;font-size: 8px;&quot;&gt;[ UI ]&lt;/span&gt;&lt;/div&gt;" style="rounded=0;whiteSpace=wrap;html=1;" vertex="1" parent="1">
          <mxGeometry x="-16" y="-320" width="120" height="60" as="geometry" />
        </mxCell>
        <mxCell id="Ll1hvZ7rJ2rwbZJNzvcm-24" value="&lt;span style=&quot;font-size: 8px;&quot;&gt;OPTIONS&lt;/span&gt;" style="rhombus;whiteSpace=wrap;html=1;" vertex="1" parent="1">
          <mxGeometry x="4" y="-197" width="80" height="80" as="geometry" />
        </mxCell>
        <mxCell id="Ll1hvZ7rJ2rwbZJNzvcm-25" value="" style="endArrow=classic;html=1;rounded=0;exitX=0.5;exitY=1;exitDx=0;exitDy=0;entryX=0.5;entryY=0;entryDx=0;entryDy=0;" edge="1" parent="1">
          <mxGeometry width="50" height="50" relative="1" as="geometry">
            <mxPoint x="44" y="-260" as="sourcePoint" />
            <mxPoint x="44" y="-198" as="targetPoint" />
          </mxGeometry>
        </mxCell>
        <mxCell id="Ll1hvZ7rJ2rwbZJNzvcm-26" value="" style="endArrow=classic;html=1;rounded=0;exitX=0.5;exitY=1;exitDx=0;exitDy=0;entryX=0.5;entryY=0;entryDx=0;entryDy=0;" edge="1" parent="1" target="Ll1hvZ7rJ2rwbZJNzvcm-28">
          <mxGeometry width="50" height="50" relative="1" as="geometry">
            <mxPoint x="44" y="-117" as="sourcePoint" />
            <mxPoint x="44" y="-55" as="targetPoint" />
          </mxGeometry>
        </mxCell>
        <mxCell id="Ll1hvZ7rJ2rwbZJNzvcm-27" value="START" style="edgeLabel;html=1;align=center;verticalAlign=middle;resizable=0;points=[];" vertex="1" connectable="0" parent="Ll1hvZ7rJ2rwbZJNzvcm-26">
          <mxGeometry x="-0.5333" y="-2" relative="1" as="geometry">
            <mxPoint x="2" y="11" as="offset" />
          </mxGeometry>
        </mxCell>
        <mxCell id="Ll1hvZ7rJ2rwbZJNzvcm-28" value="&lt;span style=&quot;font-size: 8px;&quot;&gt;QUESTION &amp;lt;Q&amp;gt;&amp;nbsp;&lt;/span&gt;&lt;div&gt;&lt;span style=&quot;font-size: 8px;&quot;&gt;[ UI ]&lt;/span&gt;&lt;/div&gt;" style="rounded=0;whiteSpace=wrap;html=1;" vertex="1" parent="1">
          <mxGeometry x="-16" y="-54" width="120" height="60" as="geometry" />
        </mxCell>
        <mxCell id="Ll1hvZ7rJ2rwbZJNzvcm-32" value="&lt;span style=&quot;font-size: 8px;&quot;&gt;OPTIONS&lt;/span&gt;" style="rhombus;whiteSpace=wrap;html=1;" vertex="1" parent="1">
          <mxGeometry x="3" y="69" width="80" height="80" as="geometry" />
        </mxCell>
        <mxCell id="Ll1hvZ7rJ2rwbZJNzvcm-33" value="" style="endArrow=classic;html=1;rounded=0;exitX=0.5;exitY=1;exitDx=0;exitDy=0;entryX=0.5;entryY=0;entryDx=0;entryDy=0;" edge="1" parent="1">
          <mxGeometry width="50" height="50" relative="1" as="geometry">
            <mxPoint x="43" y="6" as="sourcePoint" />
            <mxPoint x="43" y="68" as="targetPoint" />
          </mxGeometry>
        </mxCell>
        <mxCell id="Ll1hvZ7rJ2rwbZJNzvcm-43" value="" style="endArrow=classic;html=1;rounded=0;exitX=1;exitY=0.5;exitDx=0;exitDy=0;" edge="1" parent="1" source="Ll1hvZ7rJ2rwbZJNzvcm-32">
          <mxGeometry width="50" height="50" relative="1" as="geometry">
            <mxPoint x="100" y="100" as="sourcePoint" />
            <mxPoint x="190" y="110" as="targetPoint" />
          </mxGeometry>
        </mxCell>
        <mxCell id="Ll1hvZ7rJ2rwbZJNzvcm-44" value="NEXT" style="edgeLabel;html=1;align=center;verticalAlign=middle;resizable=0;points=[];" vertex="1" connectable="0" parent="Ll1hvZ7rJ2rwbZJNzvcm-43">
          <mxGeometry x="-0.1682" relative="1" as="geometry">
            <mxPoint as="offset" />
          </mxGeometry>
        </mxCell>
        <mxCell id="Ll1hvZ7rJ2rwbZJNzvcm-45" value="&lt;span style=&quot;font-size: 8px;&quot;&gt;ANSWERED?&lt;/span&gt;" style="rhombus;whiteSpace=wrap;html=1;" vertex="1" parent="1">
          <mxGeometry x="190" y="69" width="80" height="80" as="geometry" />
        </mxCell>
        <mxCell id="Ll1hvZ7rJ2rwbZJNzvcm-46" value="" style="endArrow=classic;html=1;rounded=0;exitX=0.5;exitY=0;exitDx=0;exitDy=0;entryX=1;entryY=0.5;entryDx=0;entryDy=0;" edge="1" parent="1" source="Ll1hvZ7rJ2rwbZJNzvcm-45" target="Ll1hvZ7rJ2rwbZJNzvcm-28">
          <mxGeometry width="50" height="50" relative="1" as="geometry">
            <mxPoint x="310" y="-10" as="sourcePoint" />
            <mxPoint x="360" y="-60" as="targetPoint" />
            <Array as="points">
              <mxPoint x="230" y="-24" />
            </Array>
          </mxGeometry>
        </mxCell>
        <mxCell id="Ll1hvZ7rJ2rwbZJNzvcm-47" value="NO" style="edgeLabel;html=1;align=center;verticalAlign=middle;resizable=0;points=[];" vertex="1" connectable="0" parent="Ll1hvZ7rJ2rwbZJNzvcm-46">
          <mxGeometry x="-0.5571" y="1" relative="1" as="geometry">
            <mxPoint x="1" y="9" as="offset" />
          </mxGeometry>
        </mxCell>
        <mxCell id="Ll1hvZ7rJ2rwbZJNzvcm-50" value="&amp;lt;Q=Q&amp;gt;" style="edgeLabel;html=1;align=center;verticalAlign=middle;resizable=0;points=[];" vertex="1" connectable="0" parent="Ll1hvZ7rJ2rwbZJNzvcm-46">
          <mxGeometry x="0.5023" y="-1" relative="1" as="geometry">
            <mxPoint x="72" y="67" as="offset" />
          </mxGeometry>
        </mxCell>
        <mxCell id="Ll1hvZ7rJ2rwbZJNzvcm-53" value="&lt;span style=&quot;font-size: 8px;&quot;&gt;LAST&lt;/span&gt;&lt;div&gt;&lt;span style=&quot;font-size: 8px;&quot;&gt;QUESTION?&lt;/span&gt;&lt;/div&gt;" style="rhombus;whiteSpace=wrap;html=1;" vertex="1" parent="1">
          <mxGeometry x="190" y="211" width="80" height="80" as="geometry" />
        </mxCell>
        <mxCell id="Ll1hvZ7rJ2rwbZJNzvcm-54" value="" style="endArrow=classic;html=1;rounded=0;exitX=0.5;exitY=1;exitDx=0;exitDy=0;entryX=0.5;entryY=0;entryDx=0;entryDy=0;" edge="1" parent="1">
          <mxGeometry width="50" height="50" relative="1" as="geometry">
            <mxPoint x="229.5" y="149" as="sourcePoint" />
            <mxPoint x="229.5" y="211" as="targetPoint" />
          </mxGeometry>
        </mxCell>
        <mxCell id="Ll1hvZ7rJ2rwbZJNzvcm-58" value="YES" style="edgeLabel;html=1;align=center;verticalAlign=middle;resizable=0;points=[];" vertex="1" connectable="0" parent="Ll1hvZ7rJ2rwbZJNzvcm-54">
          <mxGeometry x="-0.0323" y="-1" relative="1" as="geometry">
            <mxPoint as="offset" />
          </mxGeometry>
        </mxCell>
        <mxCell id="Ll1hvZ7rJ2rwbZJNzvcm-55" value="" style="endArrow=classic;html=1;rounded=0;exitX=1;exitY=0.5;exitDx=0;exitDy=0;" edge="1" parent="1" source="Ll1hvZ7rJ2rwbZJNzvcm-53">
          <mxGeometry width="50" height="50" relative="1" as="geometry">
            <mxPoint x="330" y="230" as="sourcePoint" />
            <mxPoint x="240" y="-24" as="targetPoint" />
            <Array as="points">
              <mxPoint x="350" y="250" />
              <mxPoint x="350" y="-24" />
            </Array>
          </mxGeometry>
        </mxCell>
        <mxCell id="Ll1hvZ7rJ2rwbZJNzvcm-56" value="NO" style="edgeLabel;html=1;align=center;verticalAlign=middle;resizable=0;points=[];" vertex="1" connectable="0" parent="Ll1hvZ7rJ2rwbZJNzvcm-55">
          <mxGeometry x="-0.3405" relative="1" as="geometry">
            <mxPoint as="offset" />
          </mxGeometry>
        </mxCell>
        <mxCell id="Ll1hvZ7rJ2rwbZJNzvcm-57" value="&amp;lt;Q+=1&amp;gt;" style="edgeLabel;html=1;align=center;verticalAlign=middle;resizable=0;points=[];" vertex="1" connectable="0" parent="Ll1hvZ7rJ2rwbZJNzvcm-55">
          <mxGeometry x="-0.4052" y="-1" relative="1" as="geometry">
            <mxPoint x="-2" as="offset" />
          </mxGeometry>
        </mxCell>
        <mxCell id="Ll1hvZ7rJ2rwbZJNzvcm-59" value="&lt;span style=&quot;font-size: 8px;&quot;&gt;SAVE TEST RESULT&lt;/span&gt;" style="rounded=0;whiteSpace=wrap;html=1;" vertex="1" parent="1">
          <mxGeometry x="170" y="355" width="120" height="60" as="geometry" />
        </mxCell>
        <mxCell id="Ll1hvZ7rJ2rwbZJNzvcm-63" value="" style="endArrow=classic;html=1;rounded=0;exitX=0.5;exitY=1;exitDx=0;exitDy=0;entryX=0.5;entryY=0;entryDx=0;entryDy=0;" edge="1" parent="1" target="Ll1hvZ7rJ2rwbZJNzvcm-59">
          <mxGeometry width="50" height="50" relative="1" as="geometry">
            <mxPoint x="229.5" y="291" as="sourcePoint" />
            <mxPoint x="229.5" y="354" as="targetPoint" />
          </mxGeometry>
        </mxCell>
        <mxCell id="Ll1hvZ7rJ2rwbZJNzvcm-64" value="YES" style="edgeLabel;html=1;align=center;verticalAlign=middle;resizable=0;points=[];" vertex="1" connectable="0" parent="Ll1hvZ7rJ2rwbZJNzvcm-63">
          <mxGeometry x="-0.5333" y="-2" relative="1" as="geometry">
            <mxPoint x="2" y="11" as="offset" />
          </mxGeometry>
        </mxCell>
        <mxCell id="Ll1hvZ7rJ2rwbZJNzvcm-65" value="" style="endArrow=classic;html=1;rounded=0;exitX=1;exitY=0.5;exitDx=0;exitDy=0;" edge="1" parent="1">
          <mxGeometry width="50" height="50" relative="1" as="geometry">
            <mxPoint x="4" y="109.5" as="sourcePoint" />
            <mxPoint x="-103" y="110.5" as="targetPoint" />
          </mxGeometry>
        </mxCell>
        <mxCell id="Ll1hvZ7rJ2rwbZJNzvcm-66" value="BACK" style="edgeLabel;html=1;align=center;verticalAlign=middle;resizable=0;points=[];" vertex="1" connectable="0" parent="Ll1hvZ7rJ2rwbZJNzvcm-65">
          <mxGeometry x="-0.1682" relative="1" as="geometry">
            <mxPoint as="offset" />
          </mxGeometry>
        </mxCell>
        <mxCell id="Ll1hvZ7rJ2rwbZJNzvcm-67" value="&lt;span style=&quot;font-size: 8px;&quot;&gt;FIRST&lt;/span&gt;&lt;div&gt;&lt;span style=&quot;font-size: 8px;&quot;&gt;QUESTION?&lt;/span&gt;&lt;/div&gt;" style="rhombus;whiteSpace=wrap;html=1;" vertex="1" parent="1">
          <mxGeometry x="-182" y="71" width="80" height="80" as="geometry" />
        </mxCell>
        <mxCell id="Ll1hvZ7rJ2rwbZJNzvcm-68" value="" style="endArrow=classic;html=1;rounded=0;exitX=0.5;exitY=0;exitDx=0;exitDy=0;entryX=1;entryY=0.5;entryDx=0;entryDy=0;" edge="1" parent="1">
          <mxGeometry width="50" height="50" relative="1" as="geometry">
            <mxPoint x="-142" y="70" as="sourcePoint" />
            <mxPoint x="-16" y="-23" as="targetPoint" />
            <Array as="points">
              <mxPoint x="-142" y="-23" />
            </Array>
          </mxGeometry>
        </mxCell>
        <mxCell id="Ll1hvZ7rJ2rwbZJNzvcm-69" value="NO" style="edgeLabel;html=1;align=center;verticalAlign=middle;resizable=0;points=[];" vertex="1" connectable="0" parent="Ll1hvZ7rJ2rwbZJNzvcm-68">
          <mxGeometry x="-0.5571" y="1" relative="1" as="geometry">
            <mxPoint x="1" y="9" as="offset" />
          </mxGeometry>
        </mxCell>
        <mxCell id="Ll1hvZ7rJ2rwbZJNzvcm-70" value="&amp;lt;Q-=1&amp;gt;" style="edgeLabel;html=1;align=center;verticalAlign=middle;resizable=0;points=[];" vertex="1" connectable="0" parent="Ll1hvZ7rJ2rwbZJNzvcm-68">
          <mxGeometry x="0.5023" y="-1" relative="1" as="geometry">
            <mxPoint x="-72" y="67" as="offset" />
          </mxGeometry>
        </mxCell>
        <mxCell id="Ll1hvZ7rJ2rwbZJNzvcm-71" value="&lt;span style=&quot;font-size: 8px;&quot;&gt;LAST&lt;/span&gt;&lt;div&gt;&lt;span style=&quot;font-size: 8px;&quot;&gt;TEST?&lt;/span&gt;&lt;/div&gt;" style="rhombus;whiteSpace=wrap;html=1;" vertex="1" parent="1">
          <mxGeometry x="190" y="477" width="80" height="80" as="geometry" />
        </mxCell>
        <mxCell id="Ll1hvZ7rJ2rwbZJNzvcm-72" value="" style="endArrow=classic;html=1;rounded=0;exitX=0.5;exitY=1;exitDx=0;exitDy=0;entryX=0.5;entryY=0;entryDx=0;entryDy=0;" edge="1" parent="1">
          <mxGeometry width="50" height="50" relative="1" as="geometry">
            <mxPoint x="229.5" y="415" as="sourcePoint" />
            <mxPoint x="229.5" y="477" as="targetPoint" />
          </mxGeometry>
        </mxCell>
        <mxCell id="Ll1hvZ7rJ2rwbZJNzvcm-74" value="" style="endArrow=classic;html=1;rounded=0;exitX=1;exitY=0.5;exitDx=0;exitDy=0;entryX=1;entryY=0.5;entryDx=0;entryDy=0;" edge="1" parent="1" source="Ll1hvZ7rJ2rwbZJNzvcm-71" target="Ll1hvZ7rJ2rwbZJNzvcm-20">
          <mxGeometry width="50" height="50" relative="1" as="geometry">
            <mxPoint x="270" y="520" as="sourcePoint" />
            <mxPoint x="210" y="-140" as="targetPoint" />
            <Array as="points">
              <mxPoint x="430" y="517" />
              <mxPoint x="430" y="-290" />
            </Array>
          </mxGeometry>
        </mxCell>
        <mxCell id="Ll1hvZ7rJ2rwbZJNzvcm-75" value="NO" style="edgeLabel;html=1;align=center;verticalAlign=middle;resizable=0;points=[];" vertex="1" connectable="0" parent="Ll1hvZ7rJ2rwbZJNzvcm-74">
          <mxGeometry x="-0.9063" y="1" relative="1" as="geometry">
            <mxPoint x="99" y="-147" as="offset" />
          </mxGeometry>
        </mxCell>
        <mxCell id="Ll1hvZ7rJ2rwbZJNzvcm-76" value="&amp;lt;T+=1&amp;gt;" style="edgeLabel;html=1;align=center;verticalAlign=middle;resizable=0;points=[];" vertex="1" connectable="0" parent="Ll1hvZ7rJ2rwbZJNzvcm-74">
          <mxGeometry x="-0.5536" y="-1" relative="1" as="geometry">
            <mxPoint x="-2" y="-3" as="offset" />
          </mxGeometry>
        </mxCell>
        <mxCell id="Ll1hvZ7rJ2rwbZJNzvcm-77" value="&lt;span style=&quot;font-size: 8px;&quot;&gt;FINISH&lt;/span&gt;" style="rounded=1;whiteSpace=wrap;html=1;" vertex="1" parent="1">
          <mxGeometry x="-17" y="640" width="120" height="60" as="geometry" />
        </mxCell>
        <mxCell id="Ll1hvZ7rJ2rwbZJNzvcm-78" value="" style="endArrow=classic;html=1;rounded=0;exitX=0;exitY=0.5;exitDx=0;exitDy=0;" edge="1" parent="1" source="Ll1hvZ7rJ2rwbZJNzvcm-67">
          <mxGeometry width="50" height="50" relative="1" as="geometry">
            <mxPoint x="-182" y="110" as="sourcePoint" />
            <mxPoint x="-340" y="-290" as="targetPoint" />
            <Array as="points">
              <mxPoint x="-450" y="110" />
              <mxPoint x="-450" y="-290" />
            </Array>
          </mxGeometry>
        </mxCell>
        <mxCell id="Ll1hvZ7rJ2rwbZJNzvcm-79" value="YES" style="edgeLabel;html=1;align=center;verticalAlign=middle;resizable=0;points=[];" vertex="1" connectable="0" parent="Ll1hvZ7rJ2rwbZJNzvcm-78">
          <mxGeometry x="-0.3072" y="-2" relative="1" as="geometry">
            <mxPoint x="228" y="3" as="offset" />
          </mxGeometry>
        </mxCell>
        <mxCell id="Ll1hvZ7rJ2rwbZJNzvcm-80" value="" style="endArrow=classic;html=1;rounded=0;exitX=1;exitY=0.5;exitDx=0;exitDy=0;entryX=1;entryY=0.5;entryDx=0;entryDy=0;jumpStyle=arc;" edge="1" parent="1" target="Ll1hvZ7rJ2rwbZJNzvcm-11">
          <mxGeometry width="50" height="50" relative="1" as="geometry">
            <mxPoint x="84" y="-157.62" as="sourcePoint" />
            <mxPoint x="191" y="-156.62" as="targetPoint" />
            <Array as="points">
              <mxPoint x="230" y="-158" />
              <mxPoint x="230" y="-558" />
            </Array>
          </mxGeometry>
        </mxCell>
        <mxCell id="Ll1hvZ7rJ2rwbZJNzvcm-81" value="BACK" style="edgeLabel;html=1;align=center;verticalAlign=middle;resizable=0;points=[];" vertex="1" connectable="0" parent="Ll1hvZ7rJ2rwbZJNzvcm-80">
          <mxGeometry x="-0.1682" relative="1" as="geometry">
            <mxPoint x="-110" y="135" as="offset" />
          </mxGeometry>
        </mxCell>
        <mxCell id="Ll1hvZ7rJ2rwbZJNzvcm-84" value="&lt;span style=&quot;font-size: 8px;&quot;&gt;CONFIRM EXIT&lt;/span&gt;&lt;div&gt;&lt;span style=&quot;font-size: 8px;&quot;&gt;[ UI ]&lt;/span&gt;&lt;/div&gt;" style="rounded=0;whiteSpace=wrap;html=1;" vertex="1" parent="1">
          <mxGeometry x="-202" y="221" width="120" height="60" as="geometry" />
        </mxCell>
        <mxCell id="Ll1hvZ7rJ2rwbZJNzvcm-86" value="" style="endArrow=classic;html=1;rounded=0;exitX=0.5;exitY=1;exitDx=0;exitDy=0;entryX=1;entryY=0.5;entryDx=0;entryDy=0;" edge="1" parent="1" source="Ll1hvZ7rJ2rwbZJNzvcm-32" target="Ll1hvZ7rJ2rwbZJNzvcm-84">
          <mxGeometry width="50" height="50" relative="1" as="geometry">
            <mxPoint x="50" y="170" as="sourcePoint" />
            <mxPoint x="20" y="320" as="targetPoint" />
            <Array as="points">
              <mxPoint x="43" y="251" />
            </Array>
          </mxGeometry>
        </mxCell>
        <mxCell id="Ll1hvZ7rJ2rwbZJNzvcm-128" value="EXIT" style="edgeLabel;html=1;align=center;verticalAlign=middle;resizable=0;points=[];" vertex="1" connectable="0" parent="Ll1hvZ7rJ2rwbZJNzvcm-86">
          <mxGeometry x="-0.5382" relative="1" as="geometry">
            <mxPoint y="-1" as="offset" />
          </mxGeometry>
        </mxCell>
        <mxCell id="Ll1hvZ7rJ2rwbZJNzvcm-93" value="&lt;span style=&quot;font-size: 8px;&quot;&gt;CONFIRM?&lt;/span&gt;" style="rhombus;whiteSpace=wrap;html=1;" vertex="1" parent="1">
          <mxGeometry x="-369" y="210" width="80" height="80" as="geometry" />
        </mxCell>
        <mxCell id="Ll1hvZ7rJ2rwbZJNzvcm-94" value="" style="endArrow=classic;html=1;rounded=0;exitX=0;exitY=0.5;exitDx=0;exitDy=0;" edge="1" parent="1" source="Ll1hvZ7rJ2rwbZJNzvcm-71">
          <mxGeometry width="50" height="50" relative="1" as="geometry">
            <mxPoint x="90" y="490" as="sourcePoint" />
            <mxPoint x="44" y="640" as="targetPoint" />
            <Array as="points">
              <mxPoint x="44" y="517" />
            </Array>
          </mxGeometry>
        </mxCell>
        <mxCell id="Ll1hvZ7rJ2rwbZJNzvcm-96" value="YES" style="edgeLabel;html=1;align=center;verticalAlign=middle;resizable=0;points=[];" vertex="1" connectable="0" parent="Ll1hvZ7rJ2rwbZJNzvcm-94">
          <mxGeometry x="-0.6102" y="-1" relative="1" as="geometry">
            <mxPoint as="offset" />
          </mxGeometry>
        </mxCell>
        <mxCell id="Ll1hvZ7rJ2rwbZJNzvcm-95" value="" style="endArrow=classic;html=1;rounded=0;exitX=0;exitY=0.5;exitDx=0;exitDy=0;" edge="1" parent="1" source="Ll1hvZ7rJ2rwbZJNzvcm-93">
          <mxGeometry width="50" height="50" relative="1" as="geometry">
            <mxPoint x="-450" y="370" as="sourcePoint" />
            <mxPoint x="43" y="510" as="targetPoint" />
            <Array as="points">
              <mxPoint x="-550" y="250" />
              <mxPoint x="-550" y="440" />
              <mxPoint x="43" y="440" />
            </Array>
          </mxGeometry>
        </mxCell>
        <mxCell id="Ll1hvZ7rJ2rwbZJNzvcm-97" value="YES" style="edgeLabel;html=1;align=center;verticalAlign=middle;resizable=0;points=[];" vertex="1" connectable="0" parent="Ll1hvZ7rJ2rwbZJNzvcm-95">
          <mxGeometry x="-0.5998" y="2" relative="1" as="geometry">
            <mxPoint x="128" y="-23" as="offset" />
          </mxGeometry>
        </mxCell>
        <mxCell id="Ll1hvZ7rJ2rwbZJNzvcm-98" value="" style="endArrow=classic;html=1;rounded=0;jumpStyle=arc;exitX=0.5;exitY=0;exitDx=0;exitDy=0;" edge="1" parent="1" source="Ll1hvZ7rJ2rwbZJNzvcm-93">
          <mxGeometry width="50" height="50" relative="1" as="geometry">
            <mxPoint x="-250" y="180" as="sourcePoint" />
            <mxPoint x="-150" y="-24" as="targetPoint" />
            <Array as="points">
              <mxPoint x="-329" y="-24" />
            </Array>
          </mxGeometry>
        </mxCell>
        <mxCell id="Ll1hvZ7rJ2rwbZJNzvcm-99" value="NO" style="edgeLabel;html=1;align=center;verticalAlign=middle;resizable=0;points=[];" vertex="1" connectable="0" parent="Ll1hvZ7rJ2rwbZJNzvcm-98">
          <mxGeometry x="-0.8271" y="1" relative="1" as="geometry">
            <mxPoint x="1" y="-9" as="offset" />
          </mxGeometry>
        </mxCell>
        <mxCell id="Ll1hvZ7rJ2rwbZJNzvcm-100" value="&amp;lt;Q=Q&amp;gt;" style="edgeLabel;html=1;align=center;verticalAlign=middle;resizable=0;points=[];" vertex="1" connectable="0" parent="Ll1hvZ7rJ2rwbZJNzvcm-98">
          <mxGeometry x="-0.5221" y="-1" relative="1" as="geometry">
            <mxPoint y="69" as="offset" />
          </mxGeometry>
        </mxCell>
        <mxCell id="Ll1hvZ7rJ2rwbZJNzvcm-103" value="" style="endArrow=classic;html=1;rounded=0;exitX=0;exitY=0.5;exitDx=0;exitDy=0;jumpStyle=arc;" edge="1" parent="1" source="Ll1hvZ7rJ2rwbZJNzvcm-109">
          <mxGeometry width="50" height="50" relative="1" as="geometry">
            <mxPoint x="-510" y="210" as="sourcePoint" />
            <mxPoint x="-550" y="230" as="targetPoint" />
            <Array as="points">
              <mxPoint x="-550" y="-157" />
              <mxPoint x="-550" y="190" />
            </Array>
          </mxGeometry>
        </mxCell>
        <mxCell id="Ll1hvZ7rJ2rwbZJNzvcm-126" value="YES" style="edgeLabel;html=1;align=center;verticalAlign=middle;resizable=0;points=[];" vertex="1" connectable="0" parent="Ll1hvZ7rJ2rwbZJNzvcm-103">
          <mxGeometry x="-0.9617" y="2" relative="1" as="geometry">
            <mxPoint x="-21" y="-2" as="offset" />
          </mxGeometry>
        </mxCell>
        <mxCell id="Ll1hvZ7rJ2rwbZJNzvcm-104" value="&lt;span style=&quot;font-size: 8px;&quot;&gt;CONFIRM EXIT&lt;/span&gt;&lt;div&gt;&lt;span style=&quot;font-size: 8px;&quot;&gt;[ UI ]&lt;/span&gt;&lt;/div&gt;" style="rounded=0;whiteSpace=wrap;html=1;" vertex="1" parent="1">
          <mxGeometry x="-202" y="-187" width="120" height="60" as="geometry" />
        </mxCell>
        <mxCell id="Ll1hvZ7rJ2rwbZJNzvcm-107" value="" style="endArrow=classic;html=1;rounded=0;exitX=0;exitY=0.5;exitDx=0;exitDy=0;entryX=1;entryY=0.5;entryDx=0;entryDy=0;" edge="1" parent="1" source="Ll1hvZ7rJ2rwbZJNzvcm-24" target="Ll1hvZ7rJ2rwbZJNzvcm-104">
          <mxGeometry width="50" height="50" relative="1" as="geometry">
            <mxPoint x="-260" y="80" as="sourcePoint" />
            <mxPoint x="-210" y="30" as="targetPoint" />
          </mxGeometry>
        </mxCell>
        <mxCell id="Ll1hvZ7rJ2rwbZJNzvcm-108" value="EXIT" style="edgeLabel;html=1;align=center;verticalAlign=middle;resizable=0;points=[];" vertex="1" connectable="0" parent="Ll1hvZ7rJ2rwbZJNzvcm-107">
          <mxGeometry x="0.2387" y="-2" relative="1" as="geometry">
            <mxPoint x="20" y="2" as="offset" />
          </mxGeometry>
        </mxCell>
        <mxCell id="Ll1hvZ7rJ2rwbZJNzvcm-109" value="&lt;span style=&quot;font-size: 8px;&quot;&gt;CONFIRM?&lt;/span&gt;" style="rhombus;whiteSpace=wrap;html=1;" vertex="1" parent="1">
          <mxGeometry x="-368" y="-197" width="80" height="80" as="geometry" />
        </mxCell>
        <mxCell id="Ll1hvZ7rJ2rwbZJNzvcm-110" value="" style="endArrow=classic;html=1;rounded=0;exitX=0;exitY=0.5;exitDx=0;exitDy=0;entryX=1;entryY=0.5;entryDx=0;entryDy=0;" edge="1" parent="1">
          <mxGeometry width="50" height="50" relative="1" as="geometry">
            <mxPoint x="-202" y="-157.62" as="sourcePoint" />
            <mxPoint x="-288" y="-157.62" as="targetPoint" />
          </mxGeometry>
        </mxCell>
        <mxCell id="Ll1hvZ7rJ2rwbZJNzvcm-112" value="" style="endArrow=classic;html=1;rounded=0;exitX=0.5;exitY=0;exitDx=0;exitDy=0;entryX=0;entryY=0.5;entryDx=0;entryDy=0;" edge="1" parent="1" source="Ll1hvZ7rJ2rwbZJNzvcm-109" target="Ll1hvZ7rJ2rwbZJNzvcm-20">
          <mxGeometry width="50" height="50" relative="1" as="geometry">
            <mxPoint x="-380" y="-10" as="sourcePoint" />
            <mxPoint x="-330" y="-60" as="targetPoint" />
            <Array as="points">
              <mxPoint x="-330" y="-290" />
            </Array>
          </mxGeometry>
        </mxCell>
        <mxCell id="Ll1hvZ7rJ2rwbZJNzvcm-113" value="NO&lt;div&gt;&amp;lt;T=T&amp;gt;&lt;/div&gt;" style="edgeLabel;html=1;align=center;verticalAlign=middle;resizable=0;points=[];" vertex="1" connectable="0" parent="Ll1hvZ7rJ2rwbZJNzvcm-112">
          <mxGeometry x="-0.7832" y="-1" relative="1" as="geometry">
            <mxPoint as="offset" />
          </mxGeometry>
        </mxCell>
        <mxCell id="Ll1hvZ7rJ2rwbZJNzvcm-117" value="" style="endArrow=classic;html=1;rounded=0;exitX=0;exitY=0.5;exitDx=0;exitDy=0;entryX=1;entryY=0.5;entryDx=0;entryDy=0;" edge="1" parent="1">
          <mxGeometry width="50" height="50" relative="1" as="geometry">
            <mxPoint x="4" y="-425.53" as="sourcePoint" />
            <mxPoint x="-82" y="-425.53" as="targetPoint" />
          </mxGeometry>
        </mxCell>
        <mxCell id="Ll1hvZ7rJ2rwbZJNzvcm-118" value="EXIT" style="edgeLabel;html=1;align=center;verticalAlign=middle;resizable=0;points=[];" vertex="1" connectable="0" parent="Ll1hvZ7rJ2rwbZJNzvcm-117">
          <mxGeometry x="0.2387" y="-2" relative="1" as="geometry">
            <mxPoint x="20" y="2" as="offset" />
          </mxGeometry>
        </mxCell>
        <mxCell id="Ll1hvZ7rJ2rwbZJNzvcm-119" value="&lt;span style=&quot;font-size: 8px;&quot;&gt;CONFIRM EXIT&lt;/span&gt;&lt;div&gt;&lt;span style=&quot;font-size: 8px;&quot;&gt;[ UI ]&lt;/span&gt;&lt;/div&gt;" style="rounded=0;whiteSpace=wrap;html=1;" vertex="1" parent="1">
          <mxGeometry x="-202" y="-455" width="120" height="60" as="geometry" />
        </mxCell>
        <mxCell id="Ll1hvZ7rJ2rwbZJNzvcm-120" value="&lt;span style=&quot;font-size: 8px;&quot;&gt;CONFIRM?&lt;/span&gt;" style="rhombus;whiteSpace=wrap;html=1;" vertex="1" parent="1">
          <mxGeometry x="-368" y="-465" width="80" height="80" as="geometry" />
        </mxCell>
        <mxCell id="Ll1hvZ7rJ2rwbZJNzvcm-121" value="" style="endArrow=classic;html=1;rounded=0;exitX=0;exitY=0.5;exitDx=0;exitDy=0;entryX=1;entryY=0.5;entryDx=0;entryDy=0;" edge="1" parent="1">
          <mxGeometry width="50" height="50" relative="1" as="geometry">
            <mxPoint x="-202" y="-425.62" as="sourcePoint" />
            <mxPoint x="-288" y="-425.62" as="targetPoint" />
          </mxGeometry>
        </mxCell>
        <mxCell id="Ll1hvZ7rJ2rwbZJNzvcm-122" value="" style="endArrow=classic;html=1;rounded=0;exitX=0.5;exitY=0;exitDx=0;exitDy=0;entryX=0;entryY=0.5;entryDx=0;entryDy=0;" edge="1" parent="1">
          <mxGeometry width="50" height="50" relative="1" as="geometry">
            <mxPoint x="-328" y="-465" as="sourcePoint" />
            <mxPoint x="-16" y="-558" as="targetPoint" />
            <Array as="points">
              <mxPoint x="-330" y="-558" />
            </Array>
          </mxGeometry>
        </mxCell>
        <mxCell id="Ll1hvZ7rJ2rwbZJNzvcm-124" value="NO" style="edgeLabel;html=1;align=center;verticalAlign=middle;resizable=0;points=[];" vertex="1" connectable="0" parent="Ll1hvZ7rJ2rwbZJNzvcm-122">
          <mxGeometry x="-0.785" relative="1" as="geometry">
            <mxPoint as="offset" />
          </mxGeometry>
        </mxCell>
        <mxCell id="Ll1hvZ7rJ2rwbZJNzvcm-125" value="" style="endArrow=classic;html=1;rounded=0;exitX=0;exitY=0.5;exitDx=0;exitDy=0;" edge="1" parent="1" source="Ll1hvZ7rJ2rwbZJNzvcm-120">
          <mxGeometry width="50" height="50" relative="1" as="geometry">
            <mxPoint x="-270" y="-270" as="sourcePoint" />
            <mxPoint x="-550" y="-170" as="targetPoint" />
            <Array as="points">
              <mxPoint x="-550" y="-425" />
            </Array>
          </mxGeometry>
        </mxCell>
        <mxCell id="Ll1hvZ7rJ2rwbZJNzvcm-127" value="YES" style="edgeLabel;html=1;align=center;verticalAlign=middle;resizable=0;points=[];" vertex="1" connectable="0" parent="Ll1hvZ7rJ2rwbZJNzvcm-125">
          <mxGeometry x="-0.7464" y="1" relative="1" as="geometry">
            <mxPoint as="offset" />
          </mxGeometry>
        </mxCell>
        <mxCell id="Ll1hvZ7rJ2rwbZJNzvcm-129" value="" style="endArrow=classic;html=1;rounded=0;exitX=0;exitY=0.5;exitDx=0;exitDy=0;entryX=1;entryY=0.5;entryDx=0;entryDy=0;" edge="1" parent="1">
          <mxGeometry width="50" height="50" relative="1" as="geometry">
            <mxPoint x="-202" y="250.41" as="sourcePoint" />
            <mxPoint x="-288" y="250.41" as="targetPoint" />
          </mxGeometry>
        </mxCell>
      </root>
    </mxGraphModel>
  </diagram>
</mxfile>
